# xmcd CD database file
#
# Track frame offsets:
#	150
#	31812
#	70193
#	102598
#	139283
#	170044
#	200296
#	237187
#
# Disc length: 3557 seconds
#
# Revision: 1
# Processed by: cddbd v1.5.2PL0 Copyright (c) Steve Scherf et al.
# Submitted via: CDex 1.70beta2
#
DISCID=6f0de308
DTITLE=Lars Duppler - Palindrome
DYEAR=2000
DGENRE=Jazz
TTITLE0=and now, the queer
TTITLE1=alone again suite
TTITLE2=global player
TTITLE3=the beast inside
TTITLE4=may the fourth be with you
TTITLE5=palindrome
TTITLE6=lili marleen
TTITLE7=I'ennui
EXTD=YEAR: 2000
EXTT0=
EXTT1=
EXTT2=
EXTT3=
EXTT4=
EXTT5=
EXTT6=
EXTT7=
PLAYORDER=
